<?xml version="1.0" encoding="UTF-8"?>
<svg version="1.1" xmlns="http://www.w3.org/2000/svg" width="600" height="470">
<path d="M0 0 C7.43941768 4.67300105 13.05750677 10.21332117 15.70703125 18.77734375 C16.12750393 21.60396792 16.18349617 24.36050381 16.14453125 27.21484375 C16.13752197 28.33644897 16.13752197 28.33644897 16.13037109 29.48071289 C15.95073512 36.16302512 14.58734538 40.89702962 9.70703125 45.77734375 C9.36916894 48.91747982 9.36916894 48.91747982 11.76953125 51.02734375 C12.74641645 51.94644138 13.7258206 52.86286531 14.70703125 53.77734375 C15.83604668 54.89831394 16.96083403 56.02355378 18.08203125 57.15234375 C18.675 57.7453125 19.26796875 58.33828125 19.87890625 58.94921875 C25.33203125 64.40234375 25.33203125 64.40234375 27.0715332 66.14208984 C28.54710736 67.61744374 30.02350382 69.0919751 31.5 70.56640625 C33.01627605 72.08536598 34.52228076 73.61462703 36.01953125 75.15234375 C41.61871234 81.52493552 41.61871234 81.52493552 48.70703125 84.77734375 C50.10978254 82.9631666 50.10978254 82.9631666 51.58203125 80.58984375 C63.76125001 62.73707588 81.613103 46.06086844 101.70703125 37.77734375 C102.56941406 37.31714844 103.43179688 36.85695312 104.3203125 36.3828125 C132.74034789 21.45303993 167.96025851 21.96698319 198.01953125 31.13671875 C222.21273384 39.18044166 244.19213991 54.42718817 259.70703125 74.77734375 C259.70703125 75.43734375 259.70703125 76.09734375 259.70703125 76.77734375 C260.36703125 76.77734375 261.02703125 76.77734375 261.70703125 76.77734375 C262.03703125 78.09734375 262.36703125 79.41734375 262.70703125 80.77734375 C263.36703125 80.77734375 264.02703125 80.77734375 264.70703125 80.77734375 C265.99109524 82.72958583 267.18644803 84.74075137 268.33203125 86.77734375 C269.27949219 88.44796875 269.27949219 88.44796875 270.24609375 90.15234375 C270.96925781 91.45171875 270.96925781 91.45171875 271.70703125 92.77734375 C276.30792412 90.31660256 279.77891856 87.09758286 283.51953125 83.52734375 C284.76615915 82.35335069 286.01354954 81.18016674 287.26171875 80.0078125 C288.15455566 79.16742432 288.15455566 79.16742432 289.06542969 78.31005859 C292.20454296 75.37916134 295.44372005 72.56823796 298.70703125 69.77734375 C299.37863281 69.19984375 300.05023438 68.62234375 300.7421875 68.02734375 C302.39482432 66.60798171 304.05056857 65.19223896 305.70703125 63.77734375 C305.30871094 63.29265625 304.91039062 62.80796875 304.5 62.30859375 C297.76768386 53.7908215 294.71293949 44.76758048 295.70703125 33.77734375 C297.44511288 22.98061635 301.49704346 15.18763376 309.703125 7.96875 C315.17597052 4.71491397 320.97124669 4.46066561 327.14453125 4.52734375 C327.85673828 4.51960938 328.56894531 4.511875 329.30273438 4.50390625 C336.94867071 4.5316844 343.81817004 5.85281366 349.8828125 10.76171875 C356.59269341 18.17563428 358.70703125 30.03916402 358.70703125 39.77734375 C359.76921875 39.75414062 360.83140625 39.7309375 361.92578125 39.70703125 C381.39758816 39.39616394 381.39758816 39.39616394 388.94140625 46.61328125 C394.55829861 53.49770242 395.36243427 61.71564525 395.09765625 70.33984375 C394.13352869 78.82416631 390.82863312 86.78063891 384.64453125 92.77734375 C383.19046875 93.76734375 383.19046875 93.76734375 381.70703125 94.77734375 C380.98 95.298125 380.25296875 95.81890625 379.50390625 96.35546875 C371.46582556 101.50561626 363.91271014 102.01960052 354.70703125 100.77734375 C347.90554681 98.74926475 342.26989229 95.10401345 336.70703125 90.77734375 C329.00012665 94.03795723 323.30024166 101.17054544 317.53410339 106.97592163 C315.38735976 109.13624439 313.2377778 111.29373463 311.08813477 113.45117188 C309.96352931 114.58080295 308.83982343 115.71133035 307.71704102 116.84277344 C301.55821234 123.04767814 295.38857962 129.12811264 288.70703125 134.77734375 C287.44754076 135.81141048 287.44754076 135.81141048 287.609375 138.0625 C287.62097656 138.97902344 287.63257813 139.89554688 287.64453125 140.83984375 C287.65806641 142.21849609 287.65806641 142.21849609 287.671875 143.625 C287.68347656 144.33527344 287.69507813 145.04554688 287.70703125 145.77734375 C288.72796875 145.76574219 289.74890625 145.75414062 290.80078125 145.7421875 C307.27504178 145.61298518 323.8832869 145.65830127 340.20703125 148.08984375 C340.95331787 148.19530518 341.69960449 148.3007666 342.46850586 148.40942383 C347.62297077 149.26546985 352.34197718 150.83818145 356.70703125 153.77734375 C358.70703125 156.77734375 358.70703125 156.77734375 358.58203125 160.15234375 C357.32382825 165.36489902 355.11452158 167.83901686 350.70703125 170.77734375 C337.46115145 173.53726974 323.66830356 173.20591844 310.20703125 173.40234375 C308.01561121 173.44062466 305.82420458 173.47968182 303.6328125 173.51953125 C298.3243399 173.61440228 293.01578309 173.69975133 287.70703125 173.77734375 C287.57418732 174.48989822 287.44134338 175.2024527 287.30447388 175.93659973 C284.73998849 189.62619481 281.71654274 202.18501132 275.70703125 214.77734375 C274.94712891 216.42089844 274.94712891 216.42089844 274.171875 218.09765625 C269.60246556 227.62639807 264.29249147 236.45087208 257.08984375 244.21875 C255.61500007 245.74551332 255.61500007 245.74551332 254.70703125 247.77734375 C254.04703125 247.77734375 253.38703125 247.77734375 252.70703125 247.77734375 C252.37703125 248.76734375 252.04703125 249.75734375 251.70703125 250.77734375 C247.92070236 254.90085963 243.65826013 258.47599321 239.39453125 262.08984375 C238.42676758 262.91452148 238.42676758 262.91452148 237.43945312 263.75585938 C235.86359683 265.09825548 234.28554004 266.43806769 232.70703125 267.77734375 C233.36703125 268.23109375 234.02703125 268.68484375 234.70703125 269.15234375 C235.36703125 269.68859375 236.02703125 270.22484375 236.70703125 270.77734375 C236.70703125 271.43734375 236.70703125 272.09734375 236.70703125 272.77734375 C237.54234375 273.14859375 237.54234375 273.14859375 238.39453125 273.52734375 C243.21240763 276.13160125 246.91011546 279.88550506 250.70703125 283.77734375 C254.22059408 287.33879159 257.82413847 290.78119189 261.51953125 294.15234375 C262.04869141 294.63638672 262.57785156 295.12042969 263.12304688 295.61914062 C266.56831686 298.76226757 270.05777262 301.84798627 273.58203125 304.90234375 C276.32526845 307.32284716 279.01574379 309.79949173 281.70703125 312.27734375 C290.4299503 320.35738332 290.4299503 320.35738332 299.70703125 327.77734375 C302.7870139 326.30461641 305.63231027 324.59606563 308.51953125 322.77734375 C317.33137341 317.5261006 326.10647693 316.48313171 336.23046875 318.20703125 C344.39341445 320.52702634 350.66995275 325.64191152 355.14453125 332.77734375 C360.31953785 342.33892103 361.29303331 352.49583551 358.64453125 363.08984375 C356.41455736 369.5180314 352.57549636 374.22974024 346.59375 377.45703125 C342.09063172 379.25576286 337.56716483 379.33715008 332.76953125 379.46484375 C331.89490234 379.49900391 331.02027344 379.53316406 330.11914062 379.56835938 C327.98219871 379.65010032 325.84463907 379.71541505 323.70703125 379.77734375 C323.64386719 380.40898437 323.58070313 381.040625 323.515625 381.69140625 C322.11307975 391.9373684 318.33258219 402.44274894 310.01953125 409.02734375 C307.8203125 410.54296875 307.8203125 410.54296875 305.70703125 411.77734375 C305.09730469 412.14859375 304.48757813 412.51984375 303.859375 412.90234375 C296.5660067 415.86734284 286.9666512 415.60736509 279.70703125 412.77734375 C270.75741609 407.94054657 265.37657417 402.75617866 262.33203125 392.96484375 C259.50167843 381.67910919 260.43977172 372.69118327 264.70703125 361.77734375 C266.46278192 358.84823776 268.38078271 356.27418385 270.70703125 353.77734375 C270.17335938 353.56335938 269.6396875 353.349375 269.08984375 353.12890625 C265.81657542 351.27226552 263.28155206 348.73738039 260.58203125 346.15234375 C253.95039437 339.91085833 246.99531345 334.23617088 239.70703125 328.77734375 C239.7227417 329.42058594 239.73845215 330.06382812 239.75463867 330.7265625 C240.18732234 351.20327138 239.36266051 370.12652137 227.70703125 387.77734375 C225.74517709 389.48874844 223.74400742 391.156077 221.70703125 392.77734375 C221.08957031 393.41542969 220.47210938 394.05351562 219.8359375 394.7109375 C202.94987896 411.10125854 175.53760698 414.16014047 153.21704102 414.07763672 C133.52183575 413.75175645 112.70456001 409.95054745 96.70703125 397.77734375 C95.98257813 397.2565625 95.258125 396.73578125 94.51171875 396.19921875 C83.11663791 387.27379422 77.1001721 371.03651733 75.36108398 356.98144531 C75.06949077 353.91512549 74.8165034 350.8485446 74.58203125 347.77734375 C74.49566406 346.71644531 74.40929687 345.65554688 74.3203125 344.5625 C74.10993656 341.96786346 73.90565785 339.37290165 73.70703125 336.77734375 C72.38703125 336.77734375 71.06703125 336.77734375 69.70703125 336.77734375 C69.43890625 337.41671875 69.17078125 338.05609375 68.89453125 338.71484375 C67.70703125 340.77734375 67.70703125 340.77734375 64.70703125 341.77734375 C64.70703125 342.43734375 64.70703125 343.09734375 64.70703125 343.77734375 C63.1328125 345.328125 63.1328125 345.328125 61.01953125 347.08984375 C54.15656571 352.50708674 54.15656571 352.50708674 49.70703125 359.77734375 C50.48901462 361.97933152 50.48901462 361.97933152 51.95703125 364.08984375 C56.05839661 370.91800244 57.73332836 377.17002955 56.27734375 385.125 C54.19932536 393.42424629 49.85012395 399.99393819 42.64453125 404.71484375 C35.32580715 409.03180786 28.02999221 409.5783799 19.70703125 408.77734375 C10.14332285 406.27010128 3.91976762 401.06102753 -1.29296875 392.77734375 C-4.0536194 386.37765362 -3.4782765 379.62343558 -3.29296875 372.77734375 C-5.24203125 372.46796875 -5.24203125 372.46796875 -7.23046875 372.15234375 C-15.37393169 370.34411025 -22.65677306 364.92964815 -27.4453125 358.14453125 C-31.77796299 350.77439981 -32.35026319 341.65381156 -30.23046875 333.46484375 C-27.08284257 324.75594083 -21.44732628 319.04479086 -13.29296875 314.77734375 C-5.06307858 311.45810628 4.86072597 311.33008414 13.20703125 314.40234375 C18.58742043 316.91319203 22.55565255 320.62596505 26.70703125 324.77734375 C27.41666016 324.05985962 27.41666016 324.05985962 28.140625 323.32788086 C30.32667531 321.12079035 32.51682254 318.91780742 34.70703125 316.71484375 C35.45082031 315.96267578 36.19460937 315.21050781 36.9609375 314.43554688 C41.1220224 310.2563703 45.36970343 306.27183056 49.84082031 302.42749023 C53.29711795 299.37135265 56.46183827 296.02637217 59.65625 292.70117188 C60.97100305 291.35754182 62.33520013 290.06264399 63.70703125 288.77734375 C64.36703125 288.77734375 65.02703125 288.77734375 65.70703125 288.77734375 C65.96355469 288.18308594 66.22007812 287.58882813 66.484375 286.9765625 C67.8241269 284.56672122 69.14435555 283.32862387 71.26953125 281.58984375 C76.01979504 277.58044679 80.35966374 273.21528141 84.70703125 268.77734375 C84.04832031 268.26816406 83.38960937 267.75898438 82.7109375 267.234375 C60.44730074 249.02393609 44.01684223 228.07773539 34.70703125 200.77734375 C34.37525879 199.99174072 34.04348633 199.2061377 33.70166016 198.39672852 C32.69357286 195.74190069 32.126887 193.27052151 31.63671875 190.4765625 C31.37568359 189.01186523 31.37568359 189.01186523 31.109375 187.51757812 C30.84833984 186.00647461 30.84833984 186.00647461 30.58203125 184.46484375 C30.40027344 183.43810547 30.21851563 182.41136719 30.03125 181.35351562 C29.58504386 178.82892828 29.14380544 176.30357699 28.70703125 173.77734375 C27.85497353 173.76521347 27.85497353 173.76521347 26.98570251 173.75283813 C20.99799659 173.66583738 15.01058616 173.56631049 9.02319336 173.45996094 C6.79765847 173.42200832 4.57206924 173.38710112 2.34643555 173.35546875 C-30.86483826 172.8777161 -30.86483826 172.8777161 -36.26342773 169.57006836 C-39.46450868 166.19649739 -40.29296875 162.29516779 -40.29296875 157.77734375 C-38.72834572 153.49521756 -37.08549129 151.22678691 -33.29296875 148.77734375 C-26.19946489 146.44242262 -18.55619276 146.3768847 -11.16015625 146.14453125 C-10.04230743 146.10296906 -8.92445862 146.06140686 -7.7727356 146.01858521 C-4.23803836 145.88889623 -0.70307043 145.77043755 2.83203125 145.65234375 C5.24351642 145.56584905 7.65497524 145.47861672 10.06640625 145.390625 C15.94633705 145.17766966 21.82653088 144.97390777 27.70703125 144.77734375 C28.32906473 141.72140261 28.89759194 138.65780892 29.45703125 135.58984375 C29.63363281 134.72552734 29.81023437 133.86121094 29.9921875 132.97070312 C30.98639875 127.67269982 30.98639875 127.67269982 28.93798828 122.82275391 C28.20177246 122.14776855 27.46555664 121.4727832 26.70703125 120.77734375 C25.90007812 119.93945312 25.093125 119.1015625 24.26171875 118.23828125 C21.83269024 115.8983914 19.35054506 113.6452755 16.83203125 111.40234375 C6.38268878 101.9717248 -3.38387384 91.76830079 -13.29296875 81.77734375 C-14.41771606 82.71598267 -14.41771606 82.71598267 -15.56518555 83.67358398 C-16.55172119 84.49028564 -17.53825684 85.3069873 -18.5546875 86.1484375 C-20.01974731 87.36551392 -20.01974731 87.36551392 -21.5144043 88.60717773 C-29.11022025 94.53980299 -36.85393004 94.5675385 -46.29296875 93.77734375 C-54.69155651 92.18408225 -61.43417134 87.81422276 -66.29296875 80.77734375 C-70.94946743 73.5597708 -72.01175867 67.264109 -71.29296875 58.77734375 C-69.29480184 50.05431166 -65.52693509 44.03315961 -58.29296875 38.77734375 C-53.32109518 35.69067961 -49.14496773 34.48774266 -43.29296875 33.77734375 C-43.36257812 32.82214844 -43.4321875 31.86695313 -43.50390625 30.8828125 C-43.93715196 20.53649232 -42.45720529 13.79666085 -35.5 5.6875 C-25.99980008 -3.57764342 -11.88444518 -6.33702103 0 0 Z M-35.88671875 11.609375 C-39.93773432 17.85469067 -41.02326776 24.43222106 -40.29296875 31.77734375 C-39.98747948 33.11733076 -39.66188405 34.45341385 -39.29296875 35.77734375 C-40.05480469 35.92429688 -40.81664063 36.07125 -41.6015625 36.22265625 C-50.86500295 38.2349392 -57.91852337 41.17175616 -63.73046875 48.90234375 C-67.35843964 54.93207191 -68.84467063 61.4815078 -67.9453125 68.484375 C-65.79289564 76.87493414 -61.50068144 82.6683459 -54.16796875 87.21484375 C-47.20595684 91.19468545 -40.23346471 92.0074537 -32.40625 90.05859375 C-25.174667 87.61189173 -19.43346582 84.44814459 -15.29296875 77.77734375 C-15.29296875 77.11734375 -15.29296875 76.45734375 -15.29296875 75.77734375 C-9.97373733 80.32131335 -4.91910492 85.03180986 -0.01953125 90.0234375 C1.31237311 91.36796425 2.64440797 92.71236174 3.9765625 94.05664062 C6.04567056 96.1507403 8.11312193 98.24643052 10.17822266 100.34448242 C12.19133443 102.38760889 14.21046897 104.42462422 16.23046875 106.4609375 C16.85126312 107.0951915 17.4720575 107.7294455 18.11166382 108.38291931 C19.60593735 109.88597869 21.15192834 111.33731048 22.70703125 112.77734375 C23.36703125 112.77734375 24.02703125 112.77734375 24.70703125 112.77734375 C24.70703125 113.43734375 24.70703125 114.09734375 24.70703125 114.77734375 C26.26408319 116.35574947 26.26408319 116.35574947 28.20703125 117.90234375 C28.85671875 118.44117188 29.50640625 118.98 30.17578125 119.53515625 C30.68109375 119.94507813 31.18640625 120.355 31.70703125 120.77734375 C34.93710289 119.16230793 35.32924897 115.71244245 36.45703125 112.46484375 C38.73443741 106.08381626 41.39714792 100.16299905 44.703125 94.23046875 C45.90101526 91.30332836 45.8770495 90.66998738 44.70703125 87.77734375 C43.03136924 85.83471682 41.36488416 84.06225871 39.53515625 82.27734375 C39.01572449 81.75978516 38.49629272 81.24222656 37.96112061 80.70898438 C36.861688 79.61626592 35.75866749 78.52714722 34.65234375 77.44140625 C32.97011513 75.79018645 31.29865233 74.12867574 29.62890625 72.46484375 C28.55660643 71.40172122 27.4837086 70.33920145 26.41015625 69.27734375 C25.91412903 68.78556641 25.41810181 68.29378906 24.90704346 67.78710938 C21.97634642 64.91545455 18.93096922 62.31151532 15.70703125 59.77734375 C14.01886192 58.13246081 12.3534981 56.46396833 10.70703125 54.77734375 C9.60417206 53.67187115 8.49999465 52.56771216 7.39453125 51.46484375 C6.06421875 50.13453125 6.06421875 50.13453125 4.70703125 48.77734375 C5.85490263 46.2902891 7.11066205 44.20973793 8.70703125 41.96484375 C12.67560682 35.63992643 13.57038181 29.09943077 12.70703125 21.77734375 C10.67781877 13.63619187 6.68593476 8.06088677 -0.2890625 3.4609375 C-13.0339272 -3.25057841 -27.16675019 0.64771641 -35.88671875 11.609375 Z M306.33203125 15.96484375 C299.47000266 25.08822267 298.60881302 34.7279236 299.70703125 45.77734375 C301.28805145 52.68764553 304.27001885 57.28589872 309.70703125 61.77734375 C310.36703125 61.77734375 311.02703125 61.77734375 311.70703125 61.77734375 C308.04850218 66.25904186 304.30337522 70.15393672 299.90234375 73.90234375 C297.50865676 75.94677392 295.16856567 78.04287067 292.83203125 80.15234375 C291.99671875 80.90515625 291.16140625 81.65796875 290.30078125 82.43359375 C288.52794878 84.03555081 286.757209 85.63982602 284.98828125 87.24609375 C284.11171875 88.04015625 283.23515625 88.83421875 282.33203125 89.65234375 C281.14480469 90.73128906 281.14480469 90.73128906 279.93359375 91.83203125 C277.92140656 93.59004742 275.86822025 95.20826132 273.70703125 96.77734375 C275.44654693 102.08744425 277.28009664 107.34462295 279.20703125 112.58984375 C281.4801771 118.90108555 283.23358664 125.23668719 284.70703125 131.77734375 C287.90328034 131.19779222 289.52189861 130.33105365 291.78808594 128.02099609 C292.64983429 127.15406631 292.64983429 127.15406631 293.5289917 126.2696228 C294.1394635 125.64053009 294.7499353 125.01143738 295.37890625 124.36328125 C296.02015442 123.71541656 296.66140259 123.06755188 297.32208252 122.40005493 C299.3742802 120.3244568 301.41609363 118.23900992 303.45703125 116.15234375 C305.48530549 114.08878257 307.51576465 112.02744416 309.5491333 109.96890259 C310.81252469 108.6888051 312.07280182 107.40562315 313.32928467 106.1187439 C317.06077365 102.32523199 320.92528382 98.7589414 324.96307373 95.29273987 C327.14140007 93.39990289 329.18503666 91.39794538 331.20703125 89.33984375 C332.2125 88.32083984 332.2125 88.32083984 333.23828125 87.28125 C333.9653125 86.53681641 333.9653125 86.53681641 334.70703125 85.77734375 C335.49078125 86.31359375 336.27453125 86.84984375 337.08203125 87.40234375 C347.27505754 94.14950063 356.33599119 99.7510711 368.96484375 97.34765625 C377.04449569 95.06733637 383.55223295 90.35793615 387.70703125 83.02734375 C391.96620411 74.56815321 391.97329173 63.99573119 390.09375 54.765625 C388.1877296 49.82004783 385.36034129 47.2607499 380.8046875 44.65234375 C375.65135753 42.5027238 370.50954933 42.62440473 365.01953125 42.65234375 C363.86227539 42.64654297 363.86227539 42.64654297 362.68164062 42.640625 C358.56234315 42.54898261 358.56234315 42.54898261 354.70703125 43.77734375 C354.74183594 43.03871094 354.77664063 42.30007812 354.8125 41.5390625 C355.07168552 31.82577661 353.83193505 22.66287135 348.30078125 14.43359375 C345.36260366 11.38019351 341.66334987 10.08870779 337.70703125 8.77734375 C336.71703125 8.44734375 335.72703125 8.11734375 334.70703125 7.77734375 C323.64608385 6.83883912 314.36766385 7.55035999 306.33203125 15.96484375 Z M71.70703125 62.77734375 C70.83433594 63.56753906 69.96164063 64.35773438 69.0625 65.171875 C55.44258367 78.10543335 45.62484429 94.02390463 39.70703125 111.77734375 C117.25703125 111.77734375 194.80703125 111.77734375 274.70703125 111.77734375 C273.76440086 106.12156141 272.51692873 102.7921047 269.89453125 97.90234375 C269.30599365 96.79838257 269.30599365 96.79838257 268.70556641 95.67211914 C262.78177052 84.9112834 254.84086516 73.09077342 245.70703125 64.77734375 C245.04703125 64.77734375 244.38703125 64.77734375 243.70703125 64.77734375 C243.70703125 64.11734375 243.70703125 63.45734375 243.70703125 62.77734375 C220.58769674 40.05747938 189.1424462 28.98534712 157.19921875 28.6875 C124.55204755 29.02451231 95.71239123 40.69948006 71.70703125 62.77734375 Z M37.70703125 116.77734375 C34.01713581 124.15713462 33.56228344 129.07384583 33.64453125 137.08984375 C33.64904297 137.92580078 33.65355469 138.76175781 33.65820312 139.62304688 C33.66992577 141.67451024 33.68785922 143.72593648 33.70703125 145.77734375 C65.13932658 145.80013773 96.57161973 145.8178438 128.00392135 145.82840908 C131.71159862 145.82965984 135.41927588 145.83095416 139.12695312 145.83227539 C140.23418897 145.83266886 140.23418897 145.83266886 141.36379321 145.83307027 C153.32875183 145.83742608 165.29370566 145.84531314 177.25866143 145.85449655 C189.52834544 145.86383557 201.79802692 145.86939989 214.06771433 145.87143224 C221.64373952 145.87280695 229.21975118 145.87715475 236.79577221 145.88526022 C242.59707004 145.89115219 248.39835912 145.89180208 254.19965935 145.89045143 C256.58540493 145.89072775 258.971151 145.89273278 261.35689354 145.89654922 C264.6010973 145.90148669 267.84524204 145.90034181 271.08944702 145.89759827 C272.04468557 145.90051111 272.99992411 145.90342395 273.98410928 145.90642506 C275.28068049 145.90343849 275.28068049 145.90343849 276.60344505 145.90039158 C277.72779695 145.90096116 277.72779695 145.90096116 278.87486303 145.90154225 C280.80510561 145.88901376 280.80510561 145.88901376 282.70703125 144.77734375 C283.20151796 135.38209624 281.93898308 125.24124741 277.70703125 116.77734375 C198.50703125 116.77734375 119.30703125 116.77734375 37.70703125 116.77734375 Z M7.72265625 149.16015625 C6.24280369 149.18287409 6.24280369 149.18287409 4.73305511 149.20605087 C-4.81387137 149.36071203 -14.33931061 149.71138708 -23.85644531 150.50341797 C-25.0449087 150.5798865 -25.0449087 150.5798865 -26.25738144 150.65789986 C-30.08336525 151.02779906 -31.97811423 151.47559694 -34.78900146 154.16946411 C-36.65665799 157.40798097 -36.90694893 159.09346267 -36.29296875 162.77734375 C-34.10229208 166.37084514 -34.10229208 166.37084514 -30.55177307 168.37942505 C-20.71748527 170.11186685 -10.50064789 169.92675619 -0.546875 169.91015625 C1.39702873 169.91213516 1.39702873 169.91213516 3.38020325 169.91415405 C6.90003622 169.91684572 10.41982469 169.91237927 13.93965149 169.90591431 C16.16879405 169.90230446 18.39793005 169.90071489 20.6270752 169.8996582 C43.74056859 169.88613929 66.84664396 169.63966899 89.95703125 169.27734375 C133.75563742 168.5954218 177.5190803 168.69331206 221.31781769 169.31248474 C246.00076544 169.6611742 270.68005357 169.88928915 295.36562347 169.90072632 C297.61722772 169.90232437 299.86882131 169.90586262 302.12042236 169.90991211 C306.30425975 169.91687406 310.48803362 169.91433822 314.671875 169.91015625 C316.48085014 169.91313217 316.48085014 169.91313217 318.32637024 169.91616821 C324.46309761 169.89958587 330.58234551 169.74647107 336.70922852 169.39404297 C337.90516129 169.32563202 339.10109406 169.25722107 340.33326721 169.18673706 C345.27576486 168.58698395 348.71963884 167.55465267 352.64453125 164.46484375 C354.92653938 162.00074128 354.92653938 162.00074128 354.89453125 159.21484375 C353.20395179 155.74470695 351.03690519 154.67792145 347.70703125 152.77734375 C344.28066833 151.90837215 344.28066833 151.90837215 340.64453125 151.58984375 C339.45730469 151.45191406 338.27007812 151.31398437 337.046875 151.171875 C335.60072493 151.03535129 334.15404068 150.90443604 332.70703125 150.77734375 C331.80828781 150.69611267 330.90954437 150.61488159 329.98356628 150.53118896 C321.39712137 149.81001997 312.843711 149.5608646 304.23046875 149.4609375 C302.63357427 149.43994405 301.036681 149.41885755 299.43978882 149.39768982 C293.98728806 149.32819491 288.53468046 149.27124749 283.08203125 149.21484375 C282.12432327 149.20450356 281.1666153 149.19416336 280.17988586 149.18350983 C232.74893807 148.67225737 185.31513932 148.66734866 137.88197148 148.65523034 C131.63750898 148.65359912 125.39304915 148.65066535 119.14858782 148.64651877 C63.4334307 148.56378752 63.4334307 148.56378752 7.72265625 149.16015625 Z M32.70703125 172.77734375 C35.21521436 207.02728514 53.36860283 236.91286804 78.70703125 259.3359375 C103.98504397 279.90723692 136.79664307 290.33357059 169.3671875 287.33032227 C172.83653701 286.93110389 176.26974207 286.39167126 179.70703125 285.77734375 C180.3918457 285.65762207 181.07666016 285.53790039 181.78222656 285.41455078 C213.98384283 279.50565205 242.8253878 260.01660558 261.69165039 233.38793945 C273.31420092 216.29832772 283.70703125 193.7569736 283.70703125 172.77734375 C202.09005213 170.64037789 120.57137741 170.27948251 32.70703125 172.77734375 Z M226.70703125 269.77734375 C225.32642445 271.37378372 225.32642445 271.37378372 224.70703125 273.77734375 C225.78336118 276.20442201 226.89707264 278.27789052 228.26953125 280.52734375 C234.01304913 290.66587985 237.57371351 300.52516025 238.24633789 312.21044922 C238.68624846 321.56147557 238.68624846 321.56147557 244.14453125 328.90234375 C245.97091984 330.2329983 247.82603111 331.5250757 249.70703125 332.77734375 C251.449997 334.17699806 253.17894351 335.59426297 254.89453125 337.02734375 C256.2403125 338.11595703 256.2403125 338.11595703 257.61328125 339.2265625 C263.77122713 344.25760429 269.71785565 349.54792862 275.70703125 354.77734375 C275.29420898 355.25872803 274.88138672 355.7401123 274.45605469 356.23608398 C273.9149707 356.86716064 273.37388672 357.4982373 272.81640625 358.1484375 C272.27983398 358.77419678 271.74326172 359.39995605 271.19042969 360.04467773 C264.26110934 368.13838848 263.96600214 376.49758774 264.51611328 386.76708984 C265.2758718 394.76690014 269.59935716 401.68956917 275.70703125 406.77734375 C283.3422305 411.46167743 291.80605248 412.1242148 300.4453125 410.15234375 C306.87691868 407.96618323 311.04846235 404.4792623 314.70703125 398.77734375 C317.79811542 392.50093503 319.86189792 386.54721056 319.76953125 379.52734375 C319.76050781 378.6353125 319.75148438 377.74328125 319.7421875 376.82421875 C319.73058594 376.14875 319.71898437 375.47328125 319.70703125 374.77734375 C320.36703125 375.10734375 321.02703125 375.43734375 321.70703125 375.77734375 C330.97184743 376.31281028 339.74685781 375.89651653 348.51953125 372.77734375 C353.9777804 367.78694453 356.39805263 360.60509716 356.7734375 353.34765625 C356.53322002 344.04982678 354.45991456 335.43952318 347.66015625 328.76953125 C340.53074092 322.89390965 333.9410536 320.07078902 324.63671875 320.3671875 C315.23983446 321.6827513 307.70974013 326.64113168 300.70703125 332.77734375 C295.55960673 329.16319462 291.07256571 325.26943524 286.6875 320.765625 C284.24611408 318.31460836 281.66070866 316.07873103 279.0390625 313.82421875 C276.04433002 311.19567634 273.12729054 308.48806089 270.20703125 305.77734375 C266.12422965 301.99080906 262.00932518 298.25966556 257.796875 294.6171875 C255.06332328 292.2106401 252.38599037 289.74420652 249.70703125 287.27734375 C245.10050074 283.03870337 240.45015388 278.8625836 235.70703125 274.77734375 C234.85818359 274.01744141 234.85818359 274.01744141 233.9921875 273.2421875 C230.84112518 270.35310205 230.84112518 270.35310205 226.70703125 269.77734375 Z M85.11328125 273.11328125 C84.13688922 274.11893844 83.16840424 275.13231936 82.20703125 276.15234375 C79.50089841 278.9805038 76.9873854 281.59044098 73.70703125 283.77734375 C73.70703125 284.43734375 73.70703125 285.09734375 73.70703125 285.77734375 C72.84899902 286.14533081 72.84899902 286.14533081 71.97363281 286.52075195 C69.31966328 287.99209848 67.56203942 289.71286776 65.44140625 291.8828125 C64.63316406 292.70201172 63.82492188 293.52121094 62.9921875 294.36523438 C62.15558594 295.22310547 61.31898438 296.08097656 60.45703125 296.96484375 C55.34228162 302.18799075 50.2241027 307.27999008 44.671875 312.03735352 C41.05807892 315.23759267 37.71203546 318.70892482 34.33203125 322.15234375 C32.93070378 323.57910366 31.52716775 325.00369882 30.12109375 326.42578125 C29.51217285 327.04630371 28.90325195 327.66682617 28.27587891 328.30615234 C26.70703125 329.77734375 26.70703125 329.77734375 24.70703125 330.77734375 C24.45953125 329.75640625 24.45953125 329.75640625 24.20703125 328.71484375 C21.45823485 323.33178414 16.52745981 319.30730219 11.01953125 316.83984375 C3.97607276 314.62143163 -4.23428696 314.58186075 -11.10546875 317.33984375 C-18.31017691 321.12761311 -23.67749478 325.82236545 -26.609375 333.5234375 C-28.93101327 341.17821053 -28.6387078 347.84066644 -25.171875 355.13671875 C-20.97177473 362.22810618 -15.18925393 366.49601501 -7.203125 368.5859375 C-4.56785606 369.07771871 -1.95689637 369.48360268 0.70703125 369.77734375 C0.46919922 370.60685547 0.46919922 370.60685547 0.2265625 371.453125 C-1.57434771 379.50982856 -0.56987199 386.75100271 3.70703125 393.77734375 C8.08326829 400.31580441 13.35356196 403.32618732 20.70703125 405.77734375 C30.13330564 406.71997119 37.10100492 404.83981258 44.51953125 398.96484375 C49.47835361 394.42021537 52.36616859 388.99879674 52.91015625 382.26171875 C53.07387693 372.71134594 51.19288114 366.78907336 44.70703125 359.77734375 C47.71755255 352.58186701 54.9722586 347.20726366 60.76953125 342.21484375 C61.40375 341.64636719 62.03796875 341.07789063 62.69140625 340.4921875 C64.70703125 338.77734375 64.70703125 338.77734375 67.09765625 337.15625 C71.71322706 333.57546038 73.81021995 330.43256379 74.73046875 324.68359375 C75.10141793 321.69605139 75.40129242 318.70721408 75.69018555 315.71069336 C77.04745811 301.94814706 81.68072738 290.5955563 88.89892578 278.86352539 C89.90394239 277.20809075 90.8141587 275.4958608 91.70703125 273.77734375 C91.21203125 272.29234375 91.21203125 272.29234375 90.70703125 270.77734375 C87.49680381 270.44273775 87.49680381 270.44273775 85.11328125 273.11328125 Z M94.70703125 273.77734375 C93.24120824 276.14799578 91.78432974 278.52342536 90.33203125 280.90234375 C89.91953125 281.5675 89.50703125 282.23265625 89.08203125 282.91796875 C86.73386162 286.78108654 84.95056254 290.39082129 83.70703125 294.77734375 C99.76341502 305.12354033 99.76341502 305.12354033 117.70703125 309.77734375 C118.37975472 306.36184079 119.04414924 302.94476923 119.70703125 299.52734375 C119.99320313 298.07521484 119.99320313 298.07521484 120.28515625 296.59375 C120.465625 295.65917969 120.64609375 294.72460938 120.83203125 293.76171875 C120.99960937 292.90288086 121.1671875 292.04404297 121.33984375 291.15917969 C121.8086057 288.52012269 121.8086057 288.52012269 121.70703125 284.77734375 C120.16595703 284.21466797 120.16595703 284.21466797 118.59375 283.640625 C110.4776417 280.65202903 102.51538463 277.51608922 94.70703125 273.77734375 Z M214.72265625 276.421875 C213.95179688 276.76927734 213.1809375 277.11667969 212.38671875 277.47460938 C211.18402344 278.02665039 211.18402344 278.02665039 209.95703125 278.58984375 C208.3790892 279.30509125 206.80096657 280.01994051 205.22265625 280.734375 C204.17513184 281.2135437 204.17513184 281.2135437 203.10644531 281.70239258 C199.98999807 283.0985787 196.8458246 284.4321466 193.70703125 285.77734375 C195.35703125 293.69734375 197.00703125 301.61734375 198.70703125 309.77734375 C202.85681785 309.08571265 205.686847 308.56282289 209.421875 307.0703125 C210.69901367 306.56081055 210.69901367 306.56081055 212.00195312 306.04101562 C212.87400391 305.68587891 213.74605469 305.33074219 214.64453125 304.96484375 C215.51271484 304.62130859 216.38089844 304.27777344 217.27539062 303.92382812 C222.34394735 301.88184722 227.03213174 299.60772509 231.70703125 296.77734375 C231.21004777 291.41945333 229.89260902 287.64930073 227.26953125 282.96484375 C226.34333984 281.28455078 226.34333984 281.28455078 225.3984375 279.5703125 C223.84764646 276.75892381 223.84764646 276.75892381 221.70703125 274.77734375 C218.66828305 274.77734375 217.42160968 275.19242838 214.72265625 276.421875 Z M124.70703125 286.77734375 C124.03236379 290.00489189 123.36872556 293.2346131 122.70703125 296.46484375 C122.42085937 297.83286133 122.42085937 297.83286133 122.12890625 299.22851562 C121.9484375 300.11474609 121.76796875 301.00097656 121.58203125 301.9140625 C121.41445313 302.72576904 121.246875 303.53747559 121.07421875 304.3737793 C120.69165995 306.8779624 120.64404616 309.24809877 120.70703125 311.77734375 C123.70617844 312.42736053 126.70624926 313.07245412 129.70703125 313.71484375 C130.54621094 313.89724609 131.38539063 314.07964844 132.25 314.26757812 C140.59815636 316.04722386 148.06682877 316.77734375 156.70703125 316.77734375 C156.70703125 308.19734375 156.70703125 299.61734375 156.70703125 290.77734375 C153.09765625 290.30296875 149.48828125 289.82859375 145.76953125 289.33984375 C144.65070557 289.19232666 143.53187988 289.04480957 142.37915039 288.89282227 C136.49426727 288.12242433 130.60821106 287.41115138 124.70703125 286.77734375 Z M180.62890625 287.65234375 C179.46875 287.8328125 178.30859375 288.01328125 177.11328125 288.19921875 C175.90671875 288.39 174.70015625 288.58078125 173.45703125 288.77734375 C172.235 288.968125 171.01296875 289.15890625 169.75390625 289.35546875 C166.73784772 289.8267279 163.72225674 290.30078857 160.70703125 290.77734375 C159.97894599 296.6482535 159.54856043 302.36416496 159.58203125 308.27734375 C159.57816406 308.99148438 159.57429687 309.705625 159.5703125 310.44140625 C159.26744112 313.89870809 159.26744112 313.89870809 160.70703125 316.77734375 C172.69579154 316.85726882 184.09057709 314.49205858 195.70703125 311.77734375 C195.14183145 305.73863013 194.19798367 300.0718534 192.64453125 294.21484375 C192.45826172 293.49232422 192.27199219 292.76980469 192.08007812 292.02539062 C191.6278906 290.27461328 191.1682695 288.5257585 190.70703125 286.77734375 C187.18112235 286.77734375 184.09880268 287.10804627 180.62890625 287.65234375 Z M81.70703125 298.77734375 C79.05730568 307.79873498 77.05936618 316.31715093 76.70703125 325.77734375 C84.59109742 330.73500981 92.52980652 335.35867831 100.95703125 339.33984375 C101.6833374 339.68595703 102.40964355 340.03207031 103.15795898 340.38867188 C106.17037405 341.78214092 108.34872068 342.77734375 111.70703125 342.77734375 C112.57514287 338.53006861 113.42409639 334.27918591 114.26953125 330.02734375 C114.51638672 328.82078125 114.76324219 327.61421875 115.01757812 326.37109375 C115.24638672 325.2109375 115.47519531 324.05078125 115.7109375 322.85546875 C115.92564697 321.7871582 116.14035645 320.71884766 116.36157227 319.61816406 C116.69475103 316.87832793 116.85781723 315.27585291 115.70703125 312.77734375 C114.02629414 311.59174095 114.02629414 311.59174095 111.875 310.84765625 C111.08158203 310.52990234 110.28816406 310.21214844 109.47070312 309.88476562 C108.62056641 309.56056641 107.77042969 309.23636719 106.89453125 308.90234375 C105.15750794 308.21040123 103.42182643 307.51508089 101.6875 306.81640625 C100.83720215 306.47512695 99.9869043 306.13384766 99.11083984 305.78222656 C94.92976899 304.03438098 90.95343749 301.94303799 86.95703125 299.80859375 C84.66501068 298.56901639 84.66501068 298.56901639 81.70703125 298.77734375 Z M223.95703125 303.46484375 C217.18607654 306.74253561 210.44151684 309.41432953 203.26953125 311.671875 C202.00109375 312.21908203 202.00109375 312.21908203 200.70703125 312.77734375 C198.98465972 317.94445835 200.94820777 323.16476227 202.01953125 328.40234375 C202.24576172 329.5728125 202.47199219 330.74328125 202.70507812 331.94921875 C202.92873047 333.06039062 203.15238281 334.1715625 203.3828125 335.31640625 C203.58817627 336.33943848 203.79354004 337.3624707 204.00512695 338.41650391 C204.35256958 339.58511963 204.35256958 339.58511963 204.70703125 340.77734375 C205.36703125 341.10734375 206.02703125 341.43734375 206.70703125 341.77734375 C209.00908045 340.87786757 211.17671509 339.91759566 213.39453125 338.83984375 C214.05138916 338.52716553 214.70824707 338.2144873 215.38500977 337.89233398 C222.61104024 334.41357896 229.66977859 330.62038244 236.70703125 326.77734375 C237.31935085 312.93491411 237.31935085 312.93491411 233.70703125 299.77734375 C230.17565182 299.77734375 227.08497683 301.93260078 223.95703125 303.46484375 Z M119.70703125 314.77734375 C119.05281943 317.90064828 118.41026966 321.02624977 117.76953125 324.15234375 C117.58712891 325.02246094 117.40472656 325.89257812 117.21679688 326.7890625 C115.99860875 332.76925877 115.19742635 338.69447968 114.70703125 344.77734375 C122.00431016 347.31720938 129.22559615 349.22423328 136.83203125 350.52734375 C137.54665527 350.65471924 138.2612793 350.78209473 138.99755859 350.91333008 C145.09043835 351.89843538 150.33360134 351.77734375 156.70703125 351.77734375 C156.70703125 341.21734375 156.70703125 330.65734375 156.70703125 319.77734375 C148.64633974 318.87592692 148.64633974 318.87592692 140.5847168 317.98291016 C133.56331247 317.18521085 126.6398675 316.14720537 119.70703125 314.77734375 Z M187.70703125 316.15234375 C180.78348867 317.6892977 173.90154109 318.49974742 166.84179688 319.13037109 C162.95364778 319.1318268 162.95364778 319.1318268 159.70703125 320.77734375 C159.6191215 323.06885792 159.60009087 325.36306899 159.609375 327.65625 C159.61078995 328.34291245 159.6122049 329.02957489 159.61366272 329.73704529 C159.61927646 331.93802176 159.63183118 334.13889784 159.64453125 336.33984375 C159.64954449 337.82877458 159.6541077 339.31770699 159.65820312 340.80664062 C159.66925032 344.4635745 159.68652412 348.12044933 159.70703125 351.77734375 C166.39242361 351.96700027 172.46929177 351.33438695 179.01953125 350.02734375 C179.93508789 349.8476001 180.85064453 349.66785645 181.79394531 349.48266602 C192.04190573 347.52580243 192.04190573 347.52580243 201.70703125 343.77734375 C202.86393033 340.30664652 202.50010379 338.84060387 201.74609375 335.3046875 C201.52179688 334.24056641 201.2975 333.17644531 201.06640625 332.08007812 C200.8240625 330.96955078 200.58171875 329.85902344 200.33203125 328.71484375 C200.09742188 327.60044922 199.8628125 326.48605469 199.62109375 325.33789062 C198.60734543 319.9103288 198.60734543 319.9103288 196.70703125 314.77734375 C193.46335955 314.77734375 190.86311922 315.40053978 187.70703125 316.15234375 Z M76.70703125 330.77734375 C77.19566403 351.00674073 78.86677989 375.53209527 93.70703125 390.77734375 C110.35321328 406.45605537 133.60827706 410.18112174 155.70703125 410.15234375 C156.38312439 410.15213226 157.05921753 410.15192078 157.75579834 410.15170288 C180.90727189 410.07974882 204.1471196 405.31357759 221.60546875 389.02734375 C236.42156106 373.16476165 237.15930094 351.30536247 236.70703125 330.77734375 C233.46013511 332.04278604 230.3132058 333.40964701 227.1875 334.94921875 C189.84861677 353.16348092 153.52720543 360.60287678 113.14697266 346.90917969 C103.15279128 343.33725888 93.73786502 339.04856131 84.64160156 333.57128906 C80.94699394 331.31211106 80.94699394 331.31211106 76.70703125 330.77734375 Z " fill="#000000" transform="translate(142.29296875,35.22265625)"/>
<path d="M0 0 C6.72608019 5.51949329 12.30639901 12.78153397 13.734375 21.4921875 C14.64195031 32.9645066 13.14454552 43.35297719 5.734375 52.4921875 C5.074375 52.4921875 4.414375 52.4921875 3.734375 52.4921875 C3.404375 53.4821875 3.074375 54.4721875 2.734375 55.4921875 C1.09765625 56.80859375 1.09765625 56.80859375 -0.953125 58.0546875 C-1.61699219 58.46847656 -2.28085937 58.88226563 -2.96484375 59.30859375 C-10.56659086 63.21916994 -18.75114997 63.78379666 -27.05078125 61.83984375 C-35.93786675 58.6393941 -41.90091474 53.10326125 -46.2578125 44.80078125 C-50.25740694 35.63891957 -51.19088432 24.51871666 -47.640625 14.9921875 C-43.71031092 6.78679496 -38.46855349 0.04754674 -29.9140625 -3.4765625 C-19.29504974 -7.02719216 -9.51147783 -6.33005249 0 0 Z " fill="#000000" transform="translate(266.265625,220.5078125)"/>
<path d="M0 0 C7.27168083 5.85638725 12.12114802 14.09348119 13.515625 23.375 C14.49378322 32.48309626 12.74846129 41.61626497 7.5625 49.25 C1.48201889 56.39350229 -5.61200754 61.76031611 -15.1484375 62.61328125 C-25.51360328 62.87309411 -33.12174857 60.47910918 -40.73046875 53.30078125 C-47.82763327 45.50812622 -50.35677389 36.79575725 -50.484375 26.375 C-49.57475487 16.57131633 -45.66942708 8.14711806 -38.484375 1.375 C-26.6797193 -7.71290195 -12.47067904 -8.15692214 0 0 Z " fill="#000000" transform="translate(369.484375,220.625)"/>
<path d="M0 0 C2.71677989 2.5130214 3.29803569 3.67714239 3.5 7.3125 C-0.33566465 11.27602014 -3.67289945 12.08843943 -8.98828125 12.40625 C-12.98082142 12.25722828 -15.13960091 11.52893344 -18.5 9.3125 C-19.6875 6.375 -19.6875 6.375 -19.5 3.3125 C-14.69178718 -3.0412098 -6.77552051 -3.26676882 0 0 Z " fill="#000000" transform="translate(307.5,284.6875)"/>
<path d="M0 0 C5.82868884 2.98211987 10.06138563 8.43814222 12.6875 14.375 C13.33974191 17.71238377 13.61093477 20.97828777 13.6875 24.375 C12.6975 24.705 11.7075 25.035 10.6875 25.375 C10.44515625 24.50617188 10.2028125 23.63734375 9.953125 22.7421875 C7.34569697 13.7766465 5.36909215 8.03512053 -2.3125 2.375 C-2.9725 1.715 -3.6325 1.055 -4.3125 0.375 C-2.3125 -0.625 -2.3125 -0.625 0 0 Z " fill="#000000" transform="translate(378.3125,109.625)"/>
<path d="M0 0 C-1.34603482 4.03810445 -3.65336723 5.47295076 -7 8 C-7.66 8 -8.32 8 -9 8 C-9.2578125 8.55171875 -9.515625 9.1034375 -9.78125 9.671875 C-11.17963125 12.34314175 -12.78763305 14.76851909 -14.5 17.25 C-15.1084375 18.14203125 -15.716875 19.0340625 -16.34375 19.953125 C-16.8903125 20.62859375 -17.436875 21.3040625 -18 22 C-18.66 22 -19.32 22 -20 22 C-18.24655388 14.40173349 -8.8328123 0 0 0 Z " fill="#000000" transform="translate(230,111)"/>
<path d="M0 0 C0.66 0 1.32 0 2 0 C0.56874399 3.91448518 -1.27511292 7.29133338 -3.5 10.8125 C-4.1084375 11.78832031 -4.716875 12.76414063 -5.34375 13.76953125 C-5.8903125 14.50558594 -6.436875 15.24164063 -7 16 C-7.66 16 -8.32 16 -9 16 C-8.83004579 9.37178574 -4.52530801 4.52530801 0 0 Z " fill="#000000" transform="translate(237,119)"/>
<path d="M0 0 C3.4541913 1.0719904 4.05218083 2.09716431 5.8125 5.375 C7.32434861 9.9901168 7.32434861 9.9901168 6 13 C5.01 12.67 4.02 12.34 3 12 C2.05078125 10.0390625 2.05078125 10.0390625 1.3125 7.625 C1.06113281 6.83351563 0.80976563 6.04203125 0.55078125 5.2265625 C0 3 0 3 0 0 Z " fill="#000000" transform="translate(356,118)"/>
<path d="M0 0 C0.66 0 1.32 0 2 0 C1.25 2.4375 1.25 2.4375 0 5 C-2.125 5.8125 -2.125 5.8125 -4 6 C-1.125 1.125 -1.125 1.125 0 0 Z " fill="#000000" transform="translate(245,128)"/>
</svg>
